<svg height="432pt" viewBox="-34 0 432 432.00768" width="432pt" xmlns="http://www.w3.org/2000/svg"><path d="m82.003906 158.003906c0 3.3125 2.6875 6 6 6h14.789063c5.972656 16.234375 18.207031 29.398438 33.964843 36.535156 15.753907 7.140626 33.714844 7.664063 49.859376 1.449219 3.09375-1.191406 4.636718-4.664062 3.445312-7.757812s-4.664062-4.632813-7.757812-3.445313c-25.773438 9.933594-54.835938-1.761718-66.542969-26.78125h52.242187c3.3125 0 6-2.6875 6-6s-2.6875-6-6-6h-56.15625c-1.175781-5.929687-1.324218-12.019531-.441406-18h63.597656c3.3125 0 6-2.6875 6-6s-2.6875-6-6-6h-60.351562c10.773437-26.601562 40.878906-39.652344 67.65625-29.328125 3.09375 1.1875 6.566406-.351562 7.757812-3.445312 1.1875-3.09375-.351562-6.566407-3.445312-7.757813-16.578125-6.402344-35.0625-5.679687-51.09375 1.988282-16.03125 7.671874-28.1875 21.617187-33.601563 38.542968h-13.921875c-3.3125 0-6 2.6875-6 6s2.6875 6 6 6h11.316406c-.71875 5.988282-.597656 12.046875.355469 18h-11.671875c-3.3125 0-6 2.6875-6 6zm0 0"/><path d="m6.035156 364.003906h27.96875v27.96875c.144532 3.378906 2.929688 6.039063 6.3125 6.03125h28.6875v28.25c-.082031 1.519532.472656 3.007813 1.535156 4.097656 1.0625 1.09375 2.53125 1.691407 4.054688 1.652344h283.378906c1.570313.058594 3.09375-.523437 4.230469-1.605468 1.132813-1.082032 1.785156-2.578126 1.800781-4.144532v-351.9375c.007813-3.382812-2.652344-6.167968-6.03125-6.3125h-27.96875v-27.96875c-.144531-3.378906-2.929687-6.039062-6.3125-6.03125h-28.6875v-28.25c.082032-1.519531-.472656-3.007812-1.535156-4.097656-1.0625-1.09375-2.53125-1.6914062-4.054688-1.65234375h-283.378906c-1.570312-.05859375-3.09375.51953175-4.230468 1.60546875-1.132813 1.082031-1.7851568 2.578125-1.80078175 4.144531v351.9375c-.0078125 3.382813 2.65234375 6.167969 6.03124975 6.3125zm323.96875 27.96875v-311.96875h22v340h-271v-22h242.6875c3.382813.007813 6.167969-2.652344 6.3125-6.03125zm-35-34.28125v-311.6875h23v340h-272v-22h243.410156c3.3125 0 5.589844-3 5.589844-6.3125zm-283-345.6875h271v340h-271zm0 0"/><path d="m255.132812 317.003906h-214.816406c-3.316406 0-6 2.6875-6 6s2.683594 6 6 6h214.816406c3.316407 0 6-2.6875 6-6s-2.683593-6-6-6zm0 0"/><path d="m255.132812 283.003906h-214.816406c-3.316406 0-6 2.6875-6 6s2.683594 6 6 6h214.816406c3.316407 0 6-2.6875 6-6s-2.683593-6-6-6zm0 0"/><path d="m40.316406 261.003906h77.699219c3.3125 0 6-2.6875 6-6s-2.6875-6-6-6h-77.699219c-3.316406 0-6 2.6875-6 6s2.683594 6 6 6zm0 0"/></svg>