<svg height="496pt" viewBox="0 0 496 496" width="496pt" xmlns="http://www.w3.org/2000/svg"><path d="m56 416c-13.230469 0-24 10.769531-24 24s10.769531 24 24 24 24-10.769531 24-24-10.769531-24-24-24zm0 32c-4.40625 0-8-3.585938-8-8s3.59375-8 8-8 8 3.585938 8 8-3.59375 8-8 8zm0 0"/><path d="m496 58.910156c0-32.476562-26.425781-58.910156-58.910156-58.910156-15.738282 0-30.53125 6.128906-41.65625 17.257812l-28.496094 28.484376c-6.234375-3.644532-13.28125-5.742188-20.699219-5.742188-14.167969 0-27.167969 7.144531-34.78125 19.097656l-49.65625 78.023438 14.878907 14.878906-20.679688 20.6875-5.375-5.375c-4.714844-4.71875-10.984375-7.3125-17.65625-7.3125-13.769531 0-24.96875 11.199219-24.96875 24.96875 0 6.574219 2.664062 13.007812 7.3125 17.65625l5.375 5.375-20.6875 20.6875-5.375-5.375c-4.714844-4.71875-10.984375-7.3125-17.65625-7.3125-13.769531 0-24.96875 11.199219-24.96875 24.96875 0 6.574219 2.664062 13.007812 7.3125 17.65625l5.375 5.375-20.6875 20.6875-5.375-5.375c-4.714844-4.71875-10.984375-7.3125-17.65625-7.3125-13.769531 0-24.96875 11.199219-24.96875 24.96875 0 6.574219 2.664062 13.007812 7.3125 17.65625l5.375 5.375-20.6875 20.6875-5.375-5.375c-4.714844-4.71875-10.984375-7.3125-17.65625-7.3125-13.769531 0-24.96875 11.199219-24.96875 24.96875 0 6.574219 2.664062 13.007812 7.3125 17.65625l5.375 5.375-38.75 38.742188c-8.984375 8.992187-13.9375 20.945312-13.9375 33.65625 0 26.25 21.351562 47.601562 47.601562 47.601562 12.710938 0 24.664063-4.953125 33.65625-13.945312l38.742188-38.742188 5.375 5.375c4.714844 4.71875 10.984375 7.3125 17.65625 7.3125 13.769531 0 24.96875-11.199219 24.96875-24.96875 0-6.574219-2.664062-13.007812-7.3125-17.65625l-5.375-5.375 20.6875-20.6875 5.375 5.375c4.714844 4.71875 10.984375 7.3125 17.65625 7.3125 13.769531 0 24.96875-11.199219 24.96875-24.96875 0-6.574219-2.664062-13.007812-7.3125-17.65625l-5.375-5.375 20.6875-20.6875 5.375 5.375c4.714844 4.71875 10.984375 7.3125 17.65625 7.3125 13.769531 0 24.96875-11.199219 24.96875-24.96875 0-6.574219-2.664062-13.007812-7.3125-17.65625l-5.375-5.375 20.6875-20.6875 5.375 5.375c4.714844 4.71875 10.984375 7.3125 17.65625 7.3125 13.769531 0 24.96875-11.199219 24.96875-24.96875 0-6.574219-2.664062-13.007812-7.3125-17.65625l-5.375-5.375 20.6875-20.6875 14.878906 14.878906 78.023438-49.65625c11.960937-7.597656 19.097656-20.597656 19.097656-34.765625 0-7.417969-2.097656-14.464843-5.753906-20.707031l28.496094-28.488281c11.128906-11.125 17.257812-25.925781 17.257812-41.664063zm-426.0625 411.832032c-5.960938 5.96875-13.898438 9.257812-22.335938 9.257812-17.425781 0-31.601562-14.175781-31.601562-31.601562 0-8.4375 3.289062-16.375 9.257812-22.34375l38.742188-38.742188 44.6875 44.6875zm73.09375-30.742188c-2.398438 0-4.648438-.929688-6.34375-2.625l-78.0625-78.0625c-1.664062-1.671875-2.625-3.984375-2.625-6.34375 0-4.945312 4.023438-8.96875 8.96875-8.96875 2.398438 0 4.648438.929688 6.34375 2.625l78.0625 78.0625c1.664062 1.671875 2.625 3.984375 2.625 6.34375 0 4.945312-4.023438 8.96875-8.96875 8.96875zm.96875-43.3125-44.6875-44.6875 20.6875-20.6875 44.6875 44.6875zm55.03125-12.6875c-2.398438 0-4.648438-.929688-6.34375-2.625l-78.0625-78.0625c-1.664062-1.671875-2.625-3.984375-2.625-6.34375 0-4.945312 4.023438-8.96875 8.96875-8.96875 2.398438 0 4.648438.929688 6.34375 2.625l78.0625 78.0625c1.664062 1.671875 2.625 3.984375 2.625 6.34375 0 4.945312-4.023438 8.96875-8.96875 8.96875zm.96875-43.3125-44.6875-44.6875 20.6875-20.6875 44.6875 44.6875zm55.03125-12.6875c-2.398438 0-4.648438-.929688-6.34375-2.625l-78.0625-78.0625c-1.664062-1.671875-2.625-3.984375-2.625-6.34375 0-4.945312 4.023438-8.96875 8.96875-8.96875 2.398438 0 4.648438.929688 6.34375 2.625l78.0625 78.0625c1.664062 1.671875 2.625 3.984375 2.625 6.34375 0 4.945312-4.023438 8.96875-8.96875 8.96875zm.96875-43.3125-44.6875-44.6875 20.6875-20.6875 44.6875 44.6875zm55.03125-12.6875c-2.398438 0-4.648438-.929688-6.34375-2.625l-78.0625-78.0625c-1.664062-1.671875-2.625-3.984375-2.625-6.34375 0-4.945312 4.023438-8.96875 8.96875-8.96875 2.398438 0 4.648438.929688 6.34375 2.625l78.0625 78.0625c1.664062 1.671875 2.625 3.984375 2.625 6.34375 0 4.945312-4.023438 8.96875-8.96875 8.96875zm.96875-43.3125-44.6875-44.6875 20.6875-20.6875 44.6875 44.6875zm-29.808594-93.808594 34.761719-54.613281 98.78125 98.78125-54.613281 34.761719zm147.242188 35.242188-103.554688-103.554688c4.746094-6.582031 12.183594-10.566406 20.359375-10.566406 6.738281 0 13.074219 2.625 17.832031 7.390625l68.539063 68.53125c4.765625 4.765625 7.390625 11.101563 7.390625 17.847656 0 8.175781-3.984375 15.613281-10.566406 20.351563zm10.566406-53.433594-60.6875-60.6875 27.429688-27.433594c8.105468-8.101562 18.890624-12.566406 30.347656-12.566406 23.664062 0 42.910156 19.246094 42.910156 42.910156 0 11.464844-4.464844 22.242188-12.566406 30.347656zm0 0"/><path d="m440 32c-13.230469 0-24 10.769531-24 24s10.769531 24 24 24 24-10.769531 24-24-10.769531-24-24-24zm0 32c-4.40625 0-8-3.585938-8-8s3.59375-8 8-8 8 3.585938 8 8-3.59375 8-8 8zm0 0"/></svg>