<?xml version="1.0" encoding="iso-8859-1"?>
<!-- Generator: Adobe Illustrator 19.0.0, SVG Export Plug-In . SVG Version: 6.00 Build 0)  -->
<svg version="1.1" id="Capa_1" xmlns="http://www.w3.org/2000/svg" xmlns:xlink="http://www.w3.org/1999/xlink" x="0px" y="0px"
	 viewBox="0 0 523.319 523.319" style="enable-background:new 0 0 523.319 523.319;" xml:space="preserve">
<g id="line_23_">
	<polygon points="506.659,153.713 262.053,0 16.66,153.467 34.032,181.263 262.02,38.695 489.222,181.46 	"/>
	<rect x="401.901" y="195.521" width="32.778" height="256.8"/>
	<rect x="88.657" y="195.521" width="32.778" height="256.8"/>
	<rect x="26.739" y="490.541" width="469.858" height="32.778"/>
	<path d="M287.194,239.87c14.521,0,25.567,3.77,33.139,11.358l7.867-37.023c-11.046-5.441-24.059-8.162-39.022-8.162
		c-27.452,0-49.577,9.014-66.425,26.993c-11.145,11.948-18.585,26.78-22.306,44.496h-15.914l-4.277,20.732h17.504
		c-0.197,3.114-0.279,6.719-0.279,10.817c0,2.393,0.049,4.671,0.131,6.818h-13.095l-4.278,20.716h19.782
		c3.655,18.094,11.177,33.188,22.584,45.316c16.733,17.815,38.121,26.73,64.147,26.73c15.406,0,28.91-2.901,40.497-8.686v-40.891
		c-10.161,10.522-23.797,15.766-40.891,15.766c-14.258,0-25.845-5.245-34.745-15.766c-4.638-5.441-8.063-12.915-10.292-22.453
		h60.934l4.278-20.716h-68.015c-0.18-3.393-0.262-6.638-0.262-9.768c0-3.196,0.033-5.818,0.131-7.867h71.899l4.278-20.732h-73.489
		c2.147-8.817,5.753-16.16,10.817-22.043C260.906,245.066,272.657,239.87,287.194,239.87z"/>
</g>
<g>
</g>
<g>
</g>
<g>
</g>
<g>
</g>
<g>
</g>
<g>
</g>
<g>
</g>
<g>
</g>
<g>
</g>
<g>
</g>
<g>
</g>
<g>
</g>
<g>
</g>
<g>
</g>
<g>
</g>
</svg>
