<svg height="460pt" viewBox="-55 0 460 460" width="460pt" xmlns="http://www.w3.org/2000/svg"><path d="m98 229c0 4.417969 3.582031 8 8 8h17.101562c14.640626 35.125 54.585938 52.210938 90.097657 38.535156 2.675781-1.019531 4.605469-3.390625 5.050781-6.222656.449219-2.828125-.648438-5.679688-2.878906-7.476562-2.230469-1.800782-5.25-2.269532-7.921875-1.230469-24.96875 9.636719-53.234375-.390625-66.550781-23.605469h51.101562c4.417969 0 8-3.582031 8-8s-3.582031-8-8-8h-57.148438c-1.085937-5.261719-1.386718-10.652344-.902343-16h64.050781c4.417969 0 8-3.582031 8-8s-3.582031-8-8-8h-60.0625c11.347656-27.046875 42.148438-40.160156 69.511719-29.601562 4.121093 1.589843 8.75-.464844 10.339843-4.589844 1.589844-4.121094-.464843-8.75-4.589843-10.339844-18.105469-6.992188-38.304688-6.171875-55.785157 2.265625-17.480468 8.4375-30.6875 23.738281-36.476562 42.265625h-14.9375c-4.417969 0-8 3.582031-8 8s3.582031 8 8 8h11.925781c-.382812 5.34375-.152343 10.710938.675781 16h-12.601562c-4.417969 0-8 3.582031-8 8zm0 0"/><path d="m8.027344 460h333.945312c4.417969 0 8.027344-4.078125 8.027344-8.5v-362.050781c0-2.207031-.910156-4.449219-2.355469-5.449219h-.007812l-80.960938-81.058594v-.300781c-1.46875-1.585937-3.5-2.535156-5.660156-2.640625h-252.988281c-4.417969 0-8.027344 4.078125-8.027344 8.496094v443.007812c0 4.417969 3.609375 8.496094 8.027344 8.496094zm260.972656-432.191406 53.65625 53.191406h-53.65625zm-253-11.808594h237v73.449219c0 4.421875 3.601562 7.550781 8.015625 7.550781h72.984375v347h-318zm0 0"/><path d="m280 352h-218c-4.417969 0-8 3.582031-8 8s3.582031 8 8 8h218c4.417969 0 8-3.582031 8-8s-3.582031-8-8-8zm0 0"/><path d="m280 392h-218c-4.417969 0-8 3.582031-8 8s3.582031 8 8 8h218c4.417969 0 8-3.582031 8-8s-3.582031-8-8-8zm0 0"/><path d="m62 328h108c4.417969 0 8-3.582031 8-8s-3.582031-8-8-8h-108c-4.417969 0-8 3.582031-8 8s3.582031 8 8 8zm0 0"/></svg>