<?xml version="1.0" encoding="utf-8"?>
<!-- Svg Vector Icons : http://www.onlinewebfonts.com/icon -->
<!DOCTYPE svg PUBLIC "-//W3C//DTD SVG 1.1//EN" "http://www.w3.org/Graphics/SVG/1.1/DTD/svg11.dtd">
<svg version="1.1" xmlns="http://www.w3.org/2000/svg" xmlns:xlink="http://www.w3.org/1999/xlink" x="0px" y="0px" viewBox="0 0 1000 1000" enable-background="new 0 0 1000 1000" xml:space="preserve">
<metadata> Svg Vector Icons : http://www.onlinewebfonts.com/icon </metadata>
<g><g transform="translate(0.000000,511.000000) scale(0.100000,-0.100000)"><path d="M1946.1,4977.8c-416.4-112.5-708.3-433.1-777.7-861.4c-47.9-291.9-23.9-366.1,526.4-1500.3c270.4-562.3,500.1-1014.6,509.7-1005c38.3,43.1,976.3,2012.4,1000.2,2098.6c35.9,131.6,33.5,382.9-7.2,528.8C3054,4781.6,2477.3,5119,1946.1,4977.8z"/><path d="M2747.7,1926.9l-62.2-172.3l69.4-23.9c38.3-12,155.5-64.6,260.8-117.2c617.4-299.1,938-703.5,971.5-1227.6c12-160.3,2.4-232.1-47.9-421.2c-213-772.9-229.7-1158.1-71.8-1632c208.2-626.9,775.3-1021.7,1663.1-1153.3c136.4-21.5,248.9-33.5,251.3-31.1c2.4,2.4,12,86.2,21.5,184.3l16.8,179.5l-263.2,43.1c-801.6,129.2-1241.9,466.6-1383.1,1060.1c-45.5,193.8-33.5,655.6,23.9,871c19.2,71.8,62.2,239.3,98.1,370.9c71.8,270.4,86.1,574.3,35.9,813.6c-14.4,79-74.2,241.7-131.6,358.9c-184.3,380.5-481,655.6-981.1,899.7C2805.1,2130.3,2824.3,2130.3,2747.7,1926.9z"/><path d="M6640.9,1340.6c-397.2-71.8-758.5-272.8-1043.3-581.5c-189-205.8-296.7-380.5-385.2-631.7c-136.4-387.7-143.6-839.9-19.1-1206c43.1-122.1,1773.1-3725.7,1785.1-3711.4c2.4,2.4,397.2,818.4,878.2,1811.4c540.8,1115.1,892.5,1873.6,923.7,1978.9c174.7,631.7,7.2,1301.8-445.1,1780.3C7897.2,1244.9,7260.7,1455.5,6640.9,1340.6z M7272.7,177.7c148.3-64.6,323-241.7,387.6-390c71.8-167.5,71.8-411.6,0-576.7c-69.4-155.5-241.7-330.2-394.8-397.2c-179.5-76.6-416.4-74.2-588.7,7.2C6026-875.2,6116.9,53.3,6813.2,227.9C6937.7,259.1,7141.1,235.1,7272.7,177.7z"/></g></g>
</svg>